<?xml version="1.0" encoding="UTF-8" standalone="no"?>
<!-- Created with Inkscape (http://www.inkscape.org/) -->

<svg
   width="300"
   height="80"
   viewBox="0 0 300 80"
   version="1.1"
   id="svg1"
   inkscape:version="1.4.2 (ebf0e940, 2025-05-08)"
   sodipodi:docname="m.svg"
   xmlns:inkscape="http://www.inkscape.org/namespaces/inkscape"
   xmlns:sodipodi="http://sodipodi.sourceforge.net/DTD/sodipodi-0.dtd"
   xmlns="http://www.w3.org/2000/svg"
   xmlns:svg="http://www.w3.org/2000/svg">
  <sodipodi:namedview
     id="namedview1"
     pagecolor="#505050"
     bordercolor="#ffffff"
     borderopacity="1"
     inkscape:showpageshadow="0"
     inkscape:pageopacity="0"
     inkscape:pagecheckerboard="1"
     inkscape:deskcolor="#505050"
     inkscape:document-units="px"
     inkscape:zoom="1.4008162"
     inkscape:cx="114.57606"
     inkscape:cy="13.206586"
     inkscape:window-width="1440"
     inkscape:window-height="900"
     inkscape:window-x="0"
     inkscape:window-y="0"
     inkscape:window-maximized="0"
     inkscape:current-layer="layer1" />
  <defs
     id="defs1">
    <rect
       x="-2.1416086"
       y="-1.4277391"
       width="374.06763"
       height="117.78847"
       id="rect3" />
    <rect
       x="1.4277391"
       y="16.418999"
       width="96.372391"
       height="86.378212"
       id="rect2" />
    <rect
       x="20.702215"
       y="38.548954"
       width="67.817604"
       height="31.410259"
       id="rect1" />
  </defs>
  <g
     inkscape:label="Layer 1"
     inkscape:groupmode="layer"
     id="layer1">
    <path
       d="M 19.614245,50.43239 Q 21.331889,47.512395 22.53424,44.077107 23.793846,40.64182 25.053451,37.034767 26.370312,33.37046 27.916191,29.706153 29.519326,26.041846 31.809518,22.606558 34.09971,19.114015 37.363233,16.022256 40.684011,12.930497 45.43616,10.525795 L 45.32165,10.411286 Q 40.626757,12.186184 36.790685,15.106179 32.954614,18.026174 29.920109,21.289697 26.94286,24.553221 24.709923,27.64498 22.53424,30.736739 21.045615,32.855167 18.24013,36.863003 15.720919,40.183781 13.258963,43.447305 10.682497,45.794751 8.1632857,48.142198 5.3578005,49.459059 2.5523154,50.718664 -0.99748215,50.718664 -2.6006165,50.718664 -4.0319865,50.260626 -5.4633565,49.802587 -6.5511976,48.943765 -7.6962936,48.027689 -8.3260964,46.768083 -9.013154,45.451223 -9.013154,43.733579 -9.013154,42.015935 -7.9253128,40.699074 -6.8374716,39.382214 -5.0625729,39.382214 -3.5739481,39.382214 -2.5433617,40.298291 -1.5700301,41.214368 -1.5700301,42.817502 -1.5700301,44.019853 -2.2570877,44.935929 -2.9441453,45.794751 -4.1464961,45.909261 -3.9174769,47.855924 -2.8296357,48.714746 -1.7417945,49.573568 0.03310423,49.573568 3.239373,49.573568 6.1021129,47.913179 8.9648529,46.25279 11.713083,43.39005 14.518568,40.52731 17.381308,36.691238 20.244048,32.797912 23.393062,28.389293 25.912273,24.839495 28.603249,21.747736 31.351479,18.655977 34.443238,16.136766 37.592252,13.5603 41.199305,11.613636 44.806357,9.6097185 49.100467,8.3501129 L 49.558505,9.0371705 Q 46.237727,10.69756 44.062045,13.216771 41.943617,15.678727 40.340483,18.713232 38.794603,21.690481 37.534998,25.068514 36.275392,28.446547 34.786767,31.996345 33.298142,35.546142 31.294224,39.09594 29.347561,42.588483 26.255802,45.909261 L 26.370312,46.023771 Q 28.545994,44.077107 30.435402,42.187699 32.324811,40.298291 34.443238,37.893589 36.561666,35.431633 39.080877,32.225364 41.657343,28.961841 45.035376,24.438711 47.554587,21.060678 50.302818,18.255193 53.108303,15.392453 56.257317,13.33128 59.406331,11.270108 62.956128,10.125012 66.505926,8.9226609 70.513762,8.9226609 72.632189,8.9226609 73.433756,9.2089349 74.235324,9.4952089 74.235324,10.182267 74.235324,10.525795 73.72003,10.812069 73.261992,11.098343 72.460425,11.098343 71.487093,11.098343 70.85729,10.983834 70.227488,10.869324 69.597685,10.754814 69.196901,10.640305 68.452589,10.525795 67.765531,10.411286 67.135729,10.411286 66.162397,10.411286 64.902791,11.327362 63.643186,12.243439 62.326325,14.018338 61.009465,15.735982 59.63535,18.255193 58.31849,20.71715 57.116139,23.808909 55.22673,28.790076 53.394577,32.797912 51.619678,36.748493 49.329486,39.897507 47.039294,43.046521 43.947535,45.451223 40.855776,47.798669 36.447156,49.573568 V 49.688078 H 36.561666 Q 39.767935,49.688078 43.088713,49.172785 46.409491,48.600237 49.272231,47.283376 52.306736,45.909261 55.22673,43.103776 58.146725,40.241036 61.238484,35.030849 L 61.753777,35.202614 Q 59.234566,39.496724 56.77261,42.302209 54.310654,45.107694 51.447914,46.825338 49.329486,48.084943 47.039294,48.829256 44.806357,49.516313 42.630675,49.859842 40.512247,50.146116 38.680093,50.203371 36.905195,50.260626 35.760099,50.260626 35.244806,50.260626 34.729512,50.317881 34.271474,50.43239 33.698926,50.489645 33.183633,50.604155 32.496575,50.661409 31.809518,50.718664 30.778931,50.718664 29.004032,50.718664 29.004032,49.802587 29.004032,48.772001 30.492657,48.772001 31.00795,48.772001 31.637753,48.886511 32.267556,49.00102 32.897359,49.172785 33.527162,49.344549 34.09971,49.459059 34.672258,49.573568 35.073041,49.573568 36.332647,49.573568 37.477743,48.256708 38.622839,46.939847 39.767935,44.70691 40.970285,42.416718 42.229891,39.439469 43.489497,36.462219 45.035376,33.198696 46.581256,29.935172 48.470664,26.557139 50.360072,23.179106 52.707519,20.144602 55.112221,17.052842 58.08947,14.476376 61.06672,11.89991 64.731027,10.296776 L 64.616517,10.182267 Q 61.639268,10.926579 58.891037,12.472458 56.200062,14.018338 53.680851,16.136766 51.218894,18.197938 48.871448,20.831659 46.581256,23.46538 44.405573,26.442629 42.229891,29.419879 39.424406,33.026931 36.618921,36.633984 33.469907,40.069272 30.320893,43.504559 26.94286,46.367299 23.622081,49.172785 20.301303,50.604155 Z M 86.258831,35.546142 Q 84.941971,37.435551 83.281582,39.382214 81.678447,41.271622 79.617275,43.27554 75.666694,47.054357 71.945132,49.00102 68.22357,50.947683 63.643186,50.947683 59.692605,50.947683 57.631432,49.11553 55.570259,47.283376 55.570259,43.790833 55.570259,40.756329 57.287903,38.065354 59.005547,35.374378 61.582013,33.37046 64.215734,31.366542 67.250238,30.164191 70.341997,28.961841 73.090228,28.961841 75.838458,28.961841 77.613357,29.877917 79.388255,30.736739 79.388255,32.740657 79.388255,34.744575 77.441592,36.2332 75.494929,37.721825 72.803954,38.809666 70.170233,39.840252 67.479257,40.52731 64.788282,41.157113 63.242402,41.500642 63.127893,42.073189 63.070638,42.645737 63.013383,43.218285 63.013383,43.790833 63.013383,44.82142 63.242402,45.852006 63.471421,46.825338 63.986715,47.56965 64.559263,48.313963 65.418085,48.772001 66.334161,49.230039 67.651022,49.230039 70.341997,49.230039 73.433756,47.283376 76.525516,45.279458 79.674529,42.302209 81.678447,40.355546 83.167072,38.523392 84.712952,36.691238 85.743538,35.202614 Z M 73.662776,31.252033 Q 73.662776,29.648898 72.059641,29.648898 70.800036,29.648898 69.311411,30.965759 67.880041,32.225364 66.620435,34.057518 65.418085,35.832416 64.502008,37.721825 63.585931,39.611233 63.356912,40.870839 65.761613,40.355546 67.651022,39.324959 69.597685,38.237118 70.914545,36.920258 72.28866,35.603397 72.975718,34.114772 73.662776,32.626148 73.662776,31.252033 Z M 109.44706,35.488888 Q 107.32863,38.637902 104.92393,41.443387 102.57648,44.248872 99.656489,46.367299 96.736494,48.485727 93.129442,49.745333 89.52239,50.947683 84.884751,50.947683 83.167107,50.947683 81.621228,50.604155 80.132603,50.260626 79.044762,49.516313 77.95692,48.772001 77.327118,47.626905 76.697315,46.424554 76.697315,44.82142 76.697315,42.702992 78.07143,41.500642 79.38829,40.241036 81.163189,40.241036 82.36554,40.241036 83.224362,40.928094 84.083184,41.615151 84.083184,42.989266 84.083184,44.248872 83.338872,44.878675 82.594559,45.508477 81.678482,45.508477 80.991425,45.508477 80.533386,45.336713 80.247112,45.794751 80.247112,46.424554 80.247112,48.256708 81.220444,49.287294 82.193776,50.260626 84.083184,50.260626 86.54514,50.260626 87.747491,48.829256 88.949842,47.397886 88.949842,45.393968 88.949842,44.191617 88.205529,43.046521 87.461217,41.901425 86.54514,40.756329 85.686318,39.553978 84.942006,38.408882 84.197693,37.206532 84.197693,36.004181 84.197693,34.630066 84.827496,33.37046 85.457299,32.110854 86.65965,31.137523 87.919255,30.106937 89.694154,29.534389 91.469053,28.961841 93.759245,28.961841 97.080023,28.961841 99.141196,30.106937 101.25962,31.194778 101.25962,33.313205 101.25962,34.91634 100.17178,35.946926 99.083941,36.920258 97.595316,36.920258 96.278456,36.920258 95.13336,36.2332 95.534144,35.603397 95.763163,34.91634 95.992182,34.229282 95.992182,33.37046 95.992182,31.93909 95.305124,30.793994 94.675322,29.648898 93.186697,29.648898 91.869837,29.648898 91.125524,30.564975 90.381212,31.481052 90.381212,32.969676 90.381212,34.401046 91.240034,35.660652 92.098856,36.863003 93.072187,38.065354 94.102774,39.267704 94.961596,40.584565 95.820418,41.901425 95.820418,43.561814 95.820418,45.508477 94.904341,46.882593 94.045519,48.199453 92.213365,49.230039 L 92.327875,49.344549 Q 94.789831,48.657491 97.137278,47.226121 99.54198,45.737497 101.71766,43.790833 103.89334,41.84417 105.7255,39.611233 107.61491,37.321041 109.04628,35.030849 Z M 132.74974,35.488888 Q 130.63131,38.637902 128.22661,41.443387 125.87916,44.248872 122.95917,46.367299 120.03918,48.485727 116.43212,49.745333 112.82507,50.947683 108.18743,50.947683 106.46979,50.947683 104.92391,50.604155 103.43528,50.260626 102.34744,49.516313 101.2596,48.772001 100.6298,47.626905 99.999996,46.424554 99.999996,44.82142 99.999996,42.702992 101.37411,41.500642 102.69097,40.241036 104.46587,40.241036 105.66822,40.241036 106.52704,40.928094 107.38586,41.615151 107.38586,42.989266 107.38586,44.248872 106.64155,44.878675 105.89724,45.508477 104.98116,45.508477 104.29411,45.508477 103.83607,45.336713 103.54979,45.794751 103.54979,46.424554 103.54979,48.256708 104.52312,49.287294 105.49646,50.260626 107.38586,50.260626 109.84782,50.260626 111.05017,48.829256 112.25252,47.397886 112.25252,45.393968 112.25252,44.191617 111.50821,43.046521 110.7639,41.901425 109.84782,40.756329 108.989,39.553978 108.24469,38.408882 107.50037,37.206532 107.50037,36.004181 107.50037,34.630066 108.13018,33.37046 108.75998,32.110854 109.96233,31.137523 111.22194,30.106937 112.99684,29.534389 114.77173,28.961841 117.06193,28.961841 120.3827,28.961841 122.44388,30.106937 124.5623,31.194778 124.5623,33.313205 124.5623,34.91634 123.47446,35.946926 122.38662,36.920258 120.898,36.920258 119.58114,36.920258 118.43604,36.2332 118.83682,35.603397 119.06584,34.91634 119.29486,34.229282 119.29486,33.37046 119.29486,31.93909 118.60781,30.793994 117.978,29.648898 116.48938,29.648898 115.17252,29.648898 114.42821,30.564975 113.68389,31.481052 113.68389,32.969676 113.68389,34.401046 114.54271,35.660652 115.40154,36.863003 116.37487,38.065354 117.40545,39.267704 118.26428,40.584565 119.1231,41.901425 119.1231,43.561814 119.1231,45.508477 118.20702,46.882593 117.3482,48.199453 115.51605,49.230039 L 115.63056,49.344549 Q 118.09251,48.657491 120.43996,47.226121 122.84466,45.737497 125.02034,43.790833 127.19603,41.84417 129.02818,39.611233 130.91759,37.321041 132.34896,35.030849 Z M 158.28535,29.648898 Q 157.65555,30.564975 156.62496,31.996345 155.65163,33.427715 154.50653,35.088104 153.36144,36.748493 152.21634,38.580647 151.07125,40.355546 150.09792,42.073189 149.18184,43.790833 148.55204,45.279458 147.97949,46.768083 147.97949,47.798669 147.97949,49.459059 149.29635,49.459059 150.4987,49.459059 152.10183,48.313963 153.76222,47.168867 155.70889,45.279458 157.65555,43.332795 159.77398,40.756329 161.8924,38.179863 164.06809,35.317123 L 164.41161,35.546142 Q 162.12142,38.466137 159.94574,41.271622 157.77006,44.019853 155.59438,46.195535 153.47595,48.313963 151.30027,49.630823 149.18184,50.947683 146.9489,50.947683 145.00224,50.947683 143.97165,50.317881 142.94107,49.688078 142.42577,48.772001 141.96773,47.798669 141.85322,46.768083 141.79597,45.737497 141.79597,44.935929 L 141.6242,44.82142 Q 140.70813,45.909261 139.62029,46.997102 138.5897,48.084943 137.33009,49.00102 136.07049,49.859842 134.69637,50.375135 133.32226,50.947683 131.77638,50.947683 129.02815,50.947683 127.59678,49.344549 126.22266,47.68416 126.22266,44.077107 126.22266,41.557896 127.48227,38.924176 128.74188,36.2332 131.03207,34.057518 133.37951,31.82458 136.58578,30.393211 139.79205,28.961841 143.62812,28.961841 145.86106,28.961841 147.00616,30.106937 148.20851,31.194778 148.55204,32.855167 H 148.66655 L 150.15517,29.877917 Z M 135.5552,48.428472 Q 136.75755,48.428472 138.64696,46.882593 140.53636,45.336713 142.36852,42.932011 144.20067,40.52731 145.51753,37.721825 146.83439,34.859085 146.83439,32.282619 146.83439,30.965759 146.03282,30.335956 145.28851,29.648898 144.31518,29.648898 143.11283,29.648898 141.85322,30.450465 140.65087,31.252033 139.44852,32.626148 138.30343,33.943008 137.21559,35.660652 136.185,37.321041 135.38343,39.09594 134.58186,40.813584 134.12383,42.531228 133.66579,44.248872 133.66579,45.565732 133.66579,46.539064 134.00932,47.512395 134.4101,48.428472 135.5552,48.428472 Z M 157.14025,44.935929 Q 157.14025,41.95868 158.62888,39.09594 160.17476,36.2332 162.57946,34.000263 165.04141,31.710071 168.07592,30.335956 171.11042,28.961841 174.20218,28.961841 176.03433,28.961841 177.40845,29.648898 178.83982,30.278701 179.81315,32.339874 L 181.18727,29.648898 189.14568,29.305369 Q 186.16843,34.401046 183.19118,39.324959 180.27119,44.191617 177.3512,49.172785 179.98492,48.256708 182.38962,46.768083 184.85157,45.222203 187.02726,43.39005 189.20294,41.500642 191.1496,39.382214 193.15352,37.263786 194.87116,35.145359 L 195.27195,35.546142 Q 193.5543,37.721825 191.43588,39.954762 189.31745,42.187699 186.97,44.134362 184.62255,46.081025 182.04609,47.626905 179.52688,49.172785 176.8359,49.974352 174.66022,54.382971 171.68297,57.875514 168.70572,61.368057 165.21318,63.772758 161.77789,66.234715 157.99907,67.49432 154.22026,68.811181 150.38418,68.811181 148.03674,68.811181 145.74655,68.353142 143.45635,67.895104 141.68146,66.864517 139.8493,65.891186 138.76146,64.288051 137.61636,62.742172 137.61636,60.45198 137.61636,58.963355 138.24617,57.646495 138.81872,56.386889 140.07832,55.413558 141.33793,54.440226 143.34184,53.867678 145.34576,53.352385 148.15125,53.352385 H 151.81555 V 54.039442 H 150.55595 Q 147.80772,54.039442 146.14733,55.642577 144.48694,57.245711 144.48694,60.623744 144.48694,62.169624 144.94498,63.543739 145.40302,64.917854 146.31909,65.891186 147.17792,66.921772 148.43752,67.49432 149.63987,68.124123 151.18575,68.124123 154.67829,68.124123 157.88456,65.547657 161.03358,62.971191 163.83906,58.848846 L 172.59905,46.081025 172.48454,45.966516 Q 170.48062,48.313963 167.8469,49.630823 165.27043,50.947683 162.5222,50.947683 159.94574,50.947683 158.51437,49.287294 157.14025,47.56965 157.14025,44.935929 Z M 164.58337,45.794751 Q 164.58337,46.882593 164.9269,47.798669 165.32769,48.657491 166.64455,48.657491 167.8469,48.657491 169.16376,47.855924 170.48062,46.997102 171.74022,45.680242 172.99983,44.306127 174.14493,42.588483 175.29002,40.870839 176.09159,39.09594 176.95041,37.263786 177.4657,35.603397 177.981,33.885753 177.981,32.568893 177.981,31.194778 177.23669,30.450465 176.54963,29.648898 175.40453,29.648898 174.20218,29.648898 172.94258,30.450465 171.68297,31.252033 170.48062,32.568893 169.27827,33.828498 168.19043,35.546142 167.10259,37.206532 166.30102,39.038685 165.49945,40.813584 165.04141,42.588483 164.58337,44.306127 164.58337,45.794751 Z M 219.83429,35.546142 Q 218.51743,37.435551 216.85704,39.382214 215.25391,41.271622 213.19274,43.27554 209.24216,47.054357 205.52059,49.00102 201.79903,50.947683 197.21865,50.947683 193.26807,50.947683 191.20689,49.11553 189.14572,47.283376 189.14572,43.790833 189.14572,40.756329 190.86337,38.065354 192.58101,35.374378 195.15748,33.37046 197.7912,31.366542 200.8257,30.164191 203.91746,28.961841 206.66569,28.961841 209.41392,28.961841 211.18882,29.877917 212.96372,30.736739 212.96372,32.740657 212.96372,34.744575 211.01705,36.2332 209.07039,37.721825 206.37942,38.809666 203.7457,39.840252 201.05472,40.52731 198.36374,41.157113 196.81786,41.500642 196.70335,42.073189 196.6461,42.645737 196.58885,43.218285 196.58885,43.790833 196.58885,44.82142 196.81786,45.852006 197.04688,46.825338 197.56218,47.56965 198.13472,48.313963 198.99355,48.772001 199.90962,49.230039 201.22648,49.230039 203.91746,49.230039 207.00922,47.283376 210.10098,45.279458 213.24999,42.302209 215.25391,40.355546 216.74253,38.523392 218.28841,36.691238 219.319,35.202614 Z M 207.23824,31.252033 Q 207.23824,29.648898 205.6351,29.648898 204.3755,29.648898 202.88687,30.965759 201.4555,32.225364 200.1959,34.057518 198.99355,35.832416 198.07747,37.721825 197.16139,39.611233 196.93237,40.870839 199.33708,40.355546 201.22648,39.324959 203.17315,38.237118 204.49001,36.920258 205.86412,35.603397 206.55118,34.114772 207.23824,32.626148 207.23824,31.252033 Z"
       id="text2"
       style="font-weight:900;font-size:57.2548px;font-family:'Snell Roundhand';-inkscape-font-specification:'Snell Roundhand, Heavy';white-space:pre"
       transform="matrix(1.2865271,0,0,1.244882,14.342283,-7.3663148)"
       aria-label="Message" />
  </g>
</svg>
